# xmcd
#
# Track frame offsets:
# 150
# 15990
# 27117
# 46965
# 65182
# 83792
# 97312
# 112792
# 131660
# 142137
# 154192
#
# Disc length: 2252 seconds
#
#
# Revision: 1
# Processed by: cddbd v1.5.1PL2 Copyright (c) Steve Scherf et al.
# Submitted via: FreeRIP 2.944 
#
DISCID=9208ca0b
DTITLE=Cornelis Vreeswijk - Cornelis Vreeswijk sjunger Victor Jara
DYEAR=1900
DGENRE=
TTITLE0=Plogen
TTITLE1=Jag minns dig amanda
TTITLE2=A Cuba
TTITLE3=Manifest
TTITLE4=Rätten till ett eget liv
TTITLE5=La Diuca
TTITLE6=Varken det ena eller andra
TTITLE7=Angelita Hueneman
TTITLE8=Fimpen
TTITLE9=Folkets vind
TTITLE10=La Partida
EXTD=
EXTT0=
EXTT1=
EXTT2=
EXTT3=
EXTT4=
EXTT5=
EXTT6=
EXTT7=
EXTT8=
EXTT9=
EXTT10=
PLAYORDER=
